<mxfile host="app.diagrams.net" agent="Mozilla/5.0 (X11; Linux x86_64) AppleWebKit/537.36 (KHTML, like Gecko) Chrome/141.0.0.0 Safari/537.36" version="28.2.8">
  <diagram name="Page-1" id="f1T9kCfPi89A0IBWtlZ9">
    <mxGraphModel dx="1722" dy="942" grid="1" gridSize="10" guides="1" tooltips="1" connect="1" arrows="1" fold="1" page="1" pageScale="1" pageWidth="827" pageHeight="1169" math="0" shadow="0">
      <root>
        <mxCell id="0" />
        <mxCell id="1" parent="0" />
        <mxCell id="LjimBQhZsGKoLfW1KBSW-9" style="edgeStyle=orthogonalEdgeStyle;rounded=0;orthogonalLoop=1;jettySize=auto;html=1;exitX=0.5;exitY=1;exitDx=0;exitDy=0;entryX=0.5;entryY=0;entryDx=0;entryDy=0;" parent="1" source="LjimBQhZsGKoLfW1KBSW-2" target="LjimBQhZsGKoLfW1KBSW-3" edge="1">
          <mxGeometry relative="1" as="geometry" />
        </mxCell>
        <mxCell id="LjimBQhZsGKoLfW1KBSW-2" value="START" style="ellipse;whiteSpace=wrap;html=1;fontStyle=1" parent="1" vertex="1">
          <mxGeometry x="373" y="40" width="80" height="40" as="geometry" />
        </mxCell>
        <mxCell id="LjimBQhZsGKoLfW1KBSW-17" style="edgeStyle=orthogonalEdgeStyle;rounded=0;orthogonalLoop=1;jettySize=auto;html=1;exitX=0.5;exitY=1;exitDx=0;exitDy=0;entryX=0.5;entryY=0;entryDx=0;entryDy=0;" parent="1" source="LjimBQhZsGKoLfW1KBSW-3" target="LjimBQhZsGKoLfW1KBSW-16" edge="1">
          <mxGeometry relative="1" as="geometry" />
        </mxCell>
        <mxCell id="LjimBQhZsGKoLfW1KBSW-3" value="getContractDetails :: GetSync (Contract)" style="swimlane;whiteSpace=wrap;html=1;" parent="1" vertex="1">
          <mxGeometry x="162" y="100" width="502" height="120" as="geometry" />
        </mxCell>
        <mxCell id="LjimBQhZsGKoLfW1KBSW-4" style="edgeStyle=orthogonalEdgeStyle;rounded=0;orthogonalLoop=1;jettySize=auto;html=1;exitX=1;exitY=0.5;exitDx=0;exitDy=0;entryX=0;entryY=0.5;entryDx=0;entryDy=0;" parent="LjimBQhZsGKoLfW1KBSW-3" source="LjimBQhZsGKoLfW1KBSW-5" target="LjimBQhZsGKoLfW1KBSW-7" edge="1">
          <mxGeometry relative="1" as="geometry" />
        </mxCell>
        <mxCell id="LjimBQhZsGKoLfW1KBSW-5" value="reqContractDetails(ID, contract)" style="rounded=0;whiteSpace=wrap;html=1;" parent="LjimBQhZsGKoLfW1KBSW-3" vertex="1">
          <mxGeometry x="13.5" y="40" width="260" height="60" as="geometry" />
        </mxCell>
        <mxCell id="LjimBQhZsGKoLfW1KBSW-6" style="edgeStyle=orthogonalEdgeStyle;rounded=0;orthogonalLoop=1;jettySize=auto;html=1;exitX=0.5;exitY=1;exitDx=0;exitDy=0;" parent="LjimBQhZsGKoLfW1KBSW-3" source="LjimBQhZsGKoLfW1KBSW-7" edge="1">
          <mxGeometry relative="1" as="geometry">
            <mxPoint x="394.3809523809523" y="120" as="targetPoint" />
          </mxGeometry>
        </mxCell>
        <mxCell id="LjimBQhZsGKoLfW1KBSW-7" value="contractDetails (ID, details&lt;span style=&quot;background-color: transparent; color: light-dark(rgb(0, 0, 0), rgb(255, 255, 255));&quot;&gt;)&lt;/span&gt;" style="shape=hexagon;perimeter=hexagonPerimeter2;whiteSpace=wrap;html=1;fixedSize=1;" parent="LjimBQhZsGKoLfW1KBSW-3" vertex="1">
          <mxGeometry x="299" y="55" width="191" height="30" as="geometry" />
        </mxCell>
        <mxCell id="cTRkjIP6M5kvj7bRQHPh-10" style="edgeStyle=orthogonalEdgeStyle;rounded=0;orthogonalLoop=1;jettySize=auto;html=1;entryX=0.5;entryY=0;entryDx=0;entryDy=0;" edge="1" parent="1" source="LjimBQhZsGKoLfW1KBSW-10" target="cTRkjIP6M5kvj7bRQHPh-9">
          <mxGeometry relative="1" as="geometry" />
        </mxCell>
        <mxCell id="LjimBQhZsGKoLfW1KBSW-10" value="&amp;nbsp;GetSync (ChainInfo)" style="swimlane;whiteSpace=wrap;html=1;" parent="1" vertex="1">
          <mxGeometry x="38" y="290" width="750" height="220" as="geometry" />
        </mxCell>
        <mxCell id="LjimBQhZsGKoLfW1KBSW-11" style="edgeStyle=orthogonalEdgeStyle;rounded=0;orthogonalLoop=1;jettySize=auto;html=1;exitX=1;exitY=0.5;exitDx=0;exitDy=0;entryX=0;entryY=0.5;entryDx=0;entryDy=0;" parent="LjimBQhZsGKoLfW1KBSW-10" source="LjimBQhZsGKoLfW1KBSW-12" target="LjimBQhZsGKoLfW1KBSW-14" edge="1">
          <mxGeometry relative="1" as="geometry" />
        </mxCell>
        <mxCell id="LjimBQhZsGKoLfW1KBSW-12" value="reqSecDefOptParams(ID, underlying, securityType, underlyingID)" style="rounded=0;whiteSpace=wrap;html=1;" parent="LjimBQhZsGKoLfW1KBSW-10" vertex="1">
          <mxGeometry x="13.5" y="40" width="366.5" height="60" as="geometry" />
        </mxCell>
        <mxCell id="LjimBQhZsGKoLfW1KBSW-14" value="&lt;b&gt;securityDefinitionOptionParameter&lt;/b&gt; (ID, details&lt;span style=&quot;background-color: transparent; color: light-dark(rgb(0, 0, 0), rgb(255, 255, 255));&quot;&gt;)&lt;/span&gt;" style="shape=hexagon;perimeter=hexagonPerimeter2;whiteSpace=wrap;html=1;fixedSize=1;" parent="LjimBQhZsGKoLfW1KBSW-10" vertex="1">
          <mxGeometry x="430" y="55" width="310" height="30" as="geometry" />
        </mxCell>
        <mxCell id="cTRkjIP6M5kvj7bRQHPh-8" style="edgeStyle=orthogonalEdgeStyle;rounded=0;orthogonalLoop=1;jettySize=auto;html=1;" edge="1" parent="LjimBQhZsGKoLfW1KBSW-10" source="cTRkjIP6M5kvj7bRQHPh-4">
          <mxGeometry relative="1" as="geometry">
            <mxPoint x="585" y="220" as="targetPoint" />
          </mxGeometry>
        </mxCell>
        <mxCell id="cTRkjIP6M5kvj7bRQHPh-4" value="&lt;b&gt;securityDefinitionOptionParameterEnd&lt;/b&gt; (ID, details&lt;span style=&quot;background-color: transparent; color: light-dark(rgb(0, 0, 0), rgb(255, 255, 255));&quot;&gt;)&lt;/span&gt;" style="shape=hexagon;perimeter=hexagonPerimeter2;whiteSpace=wrap;html=1;fixedSize=1;" vertex="1" parent="LjimBQhZsGKoLfW1KBSW-10">
          <mxGeometry x="430" y="160" width="310" height="30" as="geometry" />
        </mxCell>
        <mxCell id="cTRkjIP6M5kvj7bRQHPh-6" style="edgeStyle=orthogonalEdgeStyle;rounded=0;orthogonalLoop=1;jettySize=auto;html=1;exitX=0.5;exitY=1;exitDx=0;exitDy=0;entryX=0.5;entryY=0;entryDx=0;entryDy=0;" edge="1" parent="LjimBQhZsGKoLfW1KBSW-10" source="cTRkjIP6M5kvj7bRQHPh-5" target="cTRkjIP6M5kvj7bRQHPh-4">
          <mxGeometry relative="1" as="geometry" />
        </mxCell>
        <mxCell id="cTRkjIP6M5kvj7bRQHPh-5" value="&lt;b&gt;securityDefinitionOptionParameter&lt;/b&gt; (ID, details&lt;span style=&quot;background-color: transparent; color: light-dark(rgb(0, 0, 0), rgb(255, 255, 255));&quot;&gt;)&lt;/span&gt;" style="shape=hexagon;perimeter=hexagonPerimeter2;whiteSpace=wrap;html=1;fixedSize=1;" vertex="1" parent="LjimBQhZsGKoLfW1KBSW-10">
          <mxGeometry x="430" y="110" width="310" height="30" as="geometry" />
        </mxCell>
        <mxCell id="cTRkjIP6M5kvj7bRQHPh-7" value="" style="shape=flexArrow;endArrow=classic;html=1;rounded=0;exitX=0.5;exitY=1;exitDx=0;exitDy=0;entryX=0.5;entryY=0;entryDx=0;entryDy=0;" edge="1" parent="LjimBQhZsGKoLfW1KBSW-10" source="LjimBQhZsGKoLfW1KBSW-14" target="cTRkjIP6M5kvj7bRQHPh-5">
          <mxGeometry width="50" height="50" relative="1" as="geometry">
            <mxPoint x="392" y="130" as="sourcePoint" />
            <mxPoint x="442" y="80" as="targetPoint" />
          </mxGeometry>
        </mxCell>
        <mxCell id="LjimBQhZsGKoLfW1KBSW-18" style="edgeStyle=orthogonalEdgeStyle;rounded=0;orthogonalLoop=1;jettySize=auto;html=1;exitX=0.5;exitY=1;exitDx=0;exitDy=0;entryX=0.5;entryY=0;entryDx=0;entryDy=0;" parent="1" source="LjimBQhZsGKoLfW1KBSW-16" target="LjimBQhZsGKoLfW1KBSW-10" edge="1">
          <mxGeometry relative="1" as="geometry" />
        </mxCell>
        <mxCell id="LjimBQhZsGKoLfW1KBSW-16" value="Underlying Contract" style="rounded=1;whiteSpace=wrap;html=1;" parent="1" vertex="1">
          <mxGeometry x="353" y="240" width="120" height="30" as="geometry" />
        </mxCell>
        <mxCell id="cTRkjIP6M5kvj7bRQHPh-23" style="edgeStyle=orthogonalEdgeStyle;rounded=0;orthogonalLoop=1;jettySize=auto;html=1;exitX=0.5;exitY=1;exitDx=0;exitDy=0;entryX=0.5;entryY=0;entryDx=0;entryDy=0;" edge="1" parent="1" source="cTRkjIP6M5kvj7bRQHPh-9" target="cTRkjIP6M5kvj7bRQHPh-11">
          <mxGeometry relative="1" as="geometry" />
        </mxCell>
        <mxCell id="cTRkjIP6M5kvj7bRQHPh-9" value="Option Chain" style="rounded=1;whiteSpace=wrap;html=1;" vertex="1" parent="1">
          <mxGeometry x="353" y="530" width="120" height="30" as="geometry" />
        </mxCell>
        <mxCell id="cTRkjIP6M5kvj7bRQHPh-25" style="edgeStyle=orthogonalEdgeStyle;rounded=0;orthogonalLoop=1;jettySize=auto;html=1;exitX=0.5;exitY=1;exitDx=0;exitDy=0;entryX=0.5;entryY=0;entryDx=0;entryDy=0;" edge="1" parent="1" source="cTRkjIP6M5kvj7bRQHPh-11" target="cTRkjIP6M5kvj7bRQHPh-24">
          <mxGeometry relative="1" as="geometry" />
        </mxCell>
        <mxCell id="cTRkjIP6M5kvj7bRQHPh-11" value="getLast :: GetSync (double)" style="swimlane;whiteSpace=wrap;html=1;" vertex="1" parent="1">
          <mxGeometry x="163" y="585" width="502" height="210" as="geometry" />
        </mxCell>
        <mxCell id="cTRkjIP6M5kvj7bRQHPh-12" style="edgeStyle=orthogonalEdgeStyle;rounded=0;orthogonalLoop=1;jettySize=auto;html=1;exitX=1;exitY=0.5;exitDx=0;exitDy=0;entryX=0;entryY=0.5;entryDx=0;entryDy=0;" edge="1" parent="cTRkjIP6M5kvj7bRQHPh-11" source="cTRkjIP6M5kvj7bRQHPh-13" target="cTRkjIP6M5kvj7bRQHPh-15">
          <mxGeometry relative="1" as="geometry" />
        </mxCell>
        <mxCell id="cTRkjIP6M5kvj7bRQHPh-13" value="reqMktData(ID, contract)" style="rounded=0;whiteSpace=wrap;html=1;" vertex="1" parent="cTRkjIP6M5kvj7bRQHPh-11">
          <mxGeometry x="71.5" y="90" width="143" height="60" as="geometry" />
        </mxCell>
        <mxCell id="cTRkjIP6M5kvj7bRQHPh-15" value="tickPrice (ID, field, details&lt;span style=&quot;background-color: transparent; color: light-dark(rgb(0, 0, 0), rgb(255, 255, 255));&quot;&gt;)&lt;/span&gt;" style="shape=hexagon;perimeter=hexagonPerimeter2;whiteSpace=wrap;html=1;fixedSize=1;" vertex="1" parent="cTRkjIP6M5kvj7bRQHPh-11">
          <mxGeometry x="260" y="105" width="191" height="30" as="geometry" />
        </mxCell>
        <mxCell id="cTRkjIP6M5kvj7bRQHPh-17" style="edgeStyle=orthogonalEdgeStyle;rounded=0;orthogonalLoop=1;jettySize=auto;html=1;exitX=0.5;exitY=1;exitDx=0;exitDy=0;entryX=0.5;entryY=0;entryDx=0;entryDy=0;" edge="1" parent="cTRkjIP6M5kvj7bRQHPh-11" source="cTRkjIP6M5kvj7bRQHPh-16" target="cTRkjIP6M5kvj7bRQHPh-13">
          <mxGeometry relative="1" as="geometry" />
        </mxCell>
        <mxCell id="cTRkjIP6M5kvj7bRQHPh-16" value="snapshot.mode = PriceType::LAST" style="rounded=1;whiteSpace=wrap;html=1;" vertex="1" parent="cTRkjIP6M5kvj7bRQHPh-11">
          <mxGeometry x="47" y="40" width="192" height="30" as="geometry" />
        </mxCell>
        <mxCell id="cTRkjIP6M5kvj7bRQHPh-20" style="edgeStyle=orthogonalEdgeStyle;rounded=0;orthogonalLoop=1;jettySize=auto;html=1;exitX=0.5;exitY=1;exitDx=0;exitDy=0;" edge="1" parent="cTRkjIP6M5kvj7bRQHPh-11" source="cTRkjIP6M5kvj7bRQHPh-18">
          <mxGeometry relative="1" as="geometry">
            <mxPoint x="355" y="210" as="targetPoint" />
          </mxGeometry>
        </mxCell>
        <mxCell id="cTRkjIP6M5kvj7bRQHPh-18" value="tickPrice (ID, LAST, details&lt;span style=&quot;background-color: transparent; color: light-dark(rgb(0, 0, 0), rgb(255, 255, 255));&quot;&gt;)&lt;/span&gt;" style="shape=hexagon;perimeter=hexagonPerimeter2;whiteSpace=wrap;html=1;fixedSize=1;" vertex="1" parent="cTRkjIP6M5kvj7bRQHPh-11">
          <mxGeometry x="260" y="160" width="191" height="30" as="geometry" />
        </mxCell>
        <mxCell id="cTRkjIP6M5kvj7bRQHPh-19" value="" style="shape=flexArrow;endArrow=classic;html=1;rounded=0;exitX=0.5;exitY=1;exitDx=0;exitDy=0;entryX=0.5;entryY=0;entryDx=0;entryDy=0;" edge="1" parent="cTRkjIP6M5kvj7bRQHPh-11" source="cTRkjIP6M5kvj7bRQHPh-15" target="cTRkjIP6M5kvj7bRQHPh-18">
          <mxGeometry width="50" height="50" relative="1" as="geometry">
            <mxPoint x="190" y="230" as="sourcePoint" />
            <mxPoint x="190" y="255" as="targetPoint" />
          </mxGeometry>
        </mxCell>
        <mxCell id="cTRkjIP6M5kvj7bRQHPh-29" style="edgeStyle=orthogonalEdgeStyle;rounded=0;orthogonalLoop=1;jettySize=auto;html=1;exitX=0.5;exitY=1;exitDx=0;exitDy=0;entryX=0.5;entryY=0;entryDx=0;entryDy=0;" edge="1" parent="1" source="cTRkjIP6M5kvj7bRQHPh-24" target="cTRkjIP6M5kvj7bRQHPh-27">
          <mxGeometry relative="1" as="geometry" />
        </mxCell>
        <mxCell id="cTRkjIP6M5kvj7bRQHPh-24" value="Last Price" style="rounded=1;whiteSpace=wrap;html=1;" vertex="1" parent="1">
          <mxGeometry x="353" y="820" width="120" height="30" as="geometry" />
        </mxCell>
        <mxCell id="cTRkjIP6M5kvj7bRQHPh-30" style="edgeStyle=orthogonalEdgeStyle;rounded=0;orthogonalLoop=1;jettySize=auto;html=1;exitX=0.5;exitY=1;exitDx=0;exitDy=0;entryX=0.5;entryY=0;entryDx=0;entryDy=0;" edge="1" parent="1" source="cTRkjIP6M5kvj7bRQHPh-27" target="cTRkjIP6M5kvj7bRQHPh-28">
          <mxGeometry relative="1" as="geometry" />
        </mxCell>
        <mxCell id="cTRkjIP6M5kvj7bRQHPh-27" value="FilterStrikesInPctChange()" style="rounded=0;whiteSpace=wrap;html=1;" vertex="1" parent="1">
          <mxGeometry x="336.5" y="870" width="153" height="40" as="geometry" />
        </mxCell>
        <mxCell id="cTRkjIP6M5kvj7bRQHPh-32" style="edgeStyle=orthogonalEdgeStyle;rounded=0;orthogonalLoop=1;jettySize=auto;html=1;exitX=0.5;exitY=1;exitDx=0;exitDy=0;entryX=0.5;entryY=0;entryDx=0;entryDy=0;" edge="1" parent="1" source="cTRkjIP6M5kvj7bRQHPh-28" target="cTRkjIP6M5kvj7bRQHPh-31">
          <mxGeometry relative="1" as="geometry" />
        </mxCell>
        <mxCell id="cTRkjIP6M5kvj7bRQHPh-28" value="SelectPreferredExchange(default = &quot;SMART&quot;)" style="rounded=0;whiteSpace=wrap;html=1;" vertex="1" parent="1">
          <mxGeometry x="282.75" y="930" width="260.5" height="40" as="geometry" />
        </mxCell>
        <mxCell id="cTRkjIP6M5kvj7bRQHPh-31" value="END" style="ellipse;whiteSpace=wrap;html=1;fontStyle=1" vertex="1" parent="1">
          <mxGeometry x="374" y="990" width="80" height="40" as="geometry" />
        </mxCell>
      </root>
    </mxGraphModel>
  </diagram>
</mxfile>
